# xmcd CD database file
#
# Track frame offsets:
#	150
#	15420
#	33272
#	48790
#	57935
#	63962
#	73130
#	94115
#	102990
#	124002
#	136395
#	154692
#	174202
#	188615
#
# Disc length: 2697 seconds
#
# Revision: 0
# Processed by: cddbd v1.5.2PL0 Copyright (c) Steve Scherf et al.
# Submitted via: CDex 1.51
#
DISCID=ad0a870e
DTITLE=Det Norske Sjømannskor - Bli med ombord
DYEAR=1996
DGENRE=Sjømansvise/Shanty
TTITLE0=Oslofjordvalsen
TTITLE1=Piano
TTITLE2=Blå hav
TTITLE3=A long time ago
TTITLE4=can't you dance the polka
TTITLE5=Hogeye man
TTITLE6=Deep river woman
TTITLE7=When Johnny comes down to Hilo
TTITLE8=Home from the sea
TTITLE9=Paddy lay back
TTITLE10=Port Ami
TTITLE11=The leaving of Liverpool
TTITLE12=Vals i Valparaiso
TTITLE13=Rolling home
EXTD=YEAR: 1996
EXTT0=
EXTT1=
EXTT2=
EXTT3=
EXTT4=
EXTT5=
EXTT6=
EXTT7=
EXTT8=
EXTT9=
EXTT10=
EXTT11=
EXTT12=
EXTT13=
PLAYORDER=
